<svg id="Layer_1" data-name="Layer 1" xmlns="http://www.w3.org/2000/svg" viewBox="0 0 11 11"><defs><style>.cls-1{fill:#e45028;}</style></defs><title>phone</title><path class="cls-1" d="M10.76,9.77a2,2,0,0,1-.95.83,3,3,0,0,1-1.46.4,6,6,0,0,1-2-.54,6.88,6.88,0,0,1-1.37-.65A13.13,13.13,0,0,1,1.19,6.06,7.07,7.07,0,0,1,.54,4.7,6.1,6.1,0,0,1,0,2.65,3,3,0,0,1,.4,1.2a2,2,0,0,1,.83-1A3.6,3.6,0,0,1,2.31,0a.5.5,0,0,1,.17,0c.16.06.33.44.41.6.25.44.49.9.75,1.33.13.21.36.46.36.7,0,.48-1.41,1.17-1.41,1.59a1.62,1.62,0,0,0,.3.67,7.71,7.71,0,0,0,3.2,3.2,1.62,1.62,0,0,0,.67.3C7.18,8.41,7.88,7,8.35,7c.24,0,.49.23.7.36.43.26.89.5,1.33.75.16.08.54.25.6.41a.5.5,0,0,1,0,.17A3.32,3.32,0,0,1,10.76,9.77Z"/></svg>